<?xml version="1.0" encoding="utf-8" ?>
<svg baseProfile="tiny" height="100%" version="1.2" width="100%" xmlns="http://www.w3.org/2000/svg" xmlns:ev="http://www.w3.org/2001/xml-events" xmlns:xlink="http://www.w3.org/1999/xlink"><defs /><g><path d="M 250.0 50.0 L 191.221474771 169.098300563 L 59.788696741 188.196601125 L 154.89434837 280.901699437 L 132.442949542 411.803398875 L 250.0 350.0 L 367.557050458 411.803398875 L 345.10565163 280.901699437 L 440.211303259 188.196601125 L 308.778525229 169.098300563 L 250.0 50.0" fill="white" stroke="black" /></g><g><line stroke="black" x1="250" x2="250.0" y1="250" y2="50.0" /><line stroke="black" x1="250" x2="191.2215" y1="250" y2="169.0983" /><line stroke="black" x1="250" x2="59.7887" y1="250" y2="188.1966" /><line stroke="black" x1="250" x2="154.8943" y1="250" y2="280.9017" /><line stroke="black" x1="250" x2="132.4429" y1="250" y2="411.8034" /><line stroke="black" x1="250" x2="250.0" y1="250" y2="350.0" /><line stroke="black" x1="250" x2="367.5571" y1="250" y2="411.8034" /><line stroke="black" x1="250" x2="345.1057" y1="250" y2="280.9017" /><line stroke="black" x1="250" x2="440.2113" y1="250" y2="188.1966" /><line stroke="black" x1="250" x2="308.7785" y1="250" y2="169.0983" /></g><g><path d="M 250.0 50.0 L 232.679491924 60.0 L 189.130905505 149.207862655 L 191.221474771 169.098300563 L 172.950565618 160.963567701 L 74.6515932505 174.813988998 L 59.788696741 188.196601125" fill="white" stroke="black" /><path d="M 59.788696741 188.196601125 L 63.9469305573 207.75955314 L 135.331396356 276.743465621 L 154.89434837 280.901699437 L 141.511736243 295.764595947 L 124.30821668 393.532489722 L 132.442949542 411.803398875" fill="white" stroke="black" /><path d="M 132.442949542 411.803398875 L 152.333387449 413.89396814 L 240.0 367.320508076 L 250.0 350.0 L 260.0 367.320508076 L 347.666612551 413.89396814 L 367.557050458 411.803398875" fill="white" stroke="black" /><path d="M 367.557050458 411.803398875 L 375.69178332 393.532489722 L 358.488263757 295.764595947 L 345.10565163 280.901699437 L 364.668603644 276.743465621 L 436.053069443 207.75955314 L 440.211303259 188.196601125" fill="white" stroke="black" /><path d="M 440.211303259 188.196601125 L 425.348406749 174.813988998 L 327.049434382 160.963567701 L 308.778525229 169.098300563 L 310.869094495 149.207862655 L 267.320508076 60.0 L 250.0 50.0" fill="white" stroke="black" /></g></svg>