<?xml version="1.0" encoding="utf-8" ?>
<svg baseProfile="full" height="1800" version="1.1" width="1800" xmlns="http://www.w3.org/2000/svg" xmlns:ev="http://www.w3.org/2001/xml-events" xmlns:xlink="http://www.w3.org/1999/xlink"><defs /><g transform="translate(900,900)"><path d="M 0 0 L 38.5714285714 0 L 38.5714285714 33.75 L 77.1428571429 33.75 L 77.1428571429 0.0 L 115.714285714 0.0 L 115.714285714 33.75 L 154.285714286 33.75 L 154.285714286 0.0 L 192.857142857 0.0 L 192.857142857 33.75 L 231.428571429 33.75 L 231.428571429 0.0 L 270.0 0.0" fill="white" stroke="black" /><path d="M 270 0 L 378.0 0 L 378.0 33.75 L 486.0 33.75 L 486.0 0.0 L 594.0 0.0 L 594.0 33.75 L 702.0 33.75 L 702.0 0.0 L 810.0 0.0" fill="white" stroke="black" transform="rotate(20, 270, 0)" /><path d="M 0 0 L 108.0 0 L 108.0 -33.75 L 216.0 -33.75 L 216.0 0.0 L 324.0 0.0 L 324.0 -33.75 L 432.0 -33.75 L 432.0 0.0 L 540.0 0.0" fill="white" stroke="black" transform="rotate(160, 0, 0)" /><line stroke="black" x1="-592.006351095" x2="862.006351095" y1="215.472690295" y2="215.472690295" /></g></svg>