<?xml version="1.0" encoding="UTF-8" standalone="no"?>
<!-- Created with Inkscape (http://www.inkscape.org/) -->

<svg
   xmlns:dc="http://purl.org/dc/elements/1.1/"
   xmlns:cc="http://creativecommons.org/ns#"
   xmlns:rdf="http://www.w3.org/1999/02/22-rdf-syntax-ns#"
   xmlns:svg="http://www.w3.org/2000/svg"
   xmlns="http://www.w3.org/2000/svg"
   version="1.1"
   width="416.70001"
   height="596.70001"
   id="svg2">
  <defs
     id="defs4" />
  <metadata
     id="metadata7">
    <rdf:RDF>
      <cc:Work
         rdf:about="">
        <dc:format>image/svg+xml</dc:format>
        <dc:type
           rdf:resource="http://purl.org/dc/dcmitype/StillImage" />
        <dc:title></dc:title>
      </cc:Work>
    </rdf:RDF>
  </metadata>
  <g
     transform="translate(0,-455.65975)"
     id="layer1"
     style="display:inline">
    <g
       transform="matrix(0.40295452,0,0,0.40295452,37.795347,443.46919)"
       id="g2996">
      <path
         d="m 662.69795,830.77387 c -0.87505,-6.64656 -0.77516,-8.52695 -8.20308,-13.34409 -11.42264,-7.4078 -27.1764,1.63262 -31.30772,8.42604 -1.64947,2.71234 -4.26793,10.21284 -5.81881,16.6678 -1.55087,6.45495 -5.6934,21.18069 -9.20562,32.72384 -3.51222,11.54316 -6.38585,23.98216 -6.38585,27.64236 0,5.7619 0.56744,6.7973 4.22876,7.7162 2.32581,0.5838 7.71602,0.6724 11.97825,0.197 10.54117,-1.1758 16.04897,-7.7306 31.706,-37.73331 6.81521,-13.0596 9.20924,-28.75324 10.57767,-29.01028 m 15.91274,-22.04197 c -14.86113,2.63841 -9.36343,28.93658 -7.44278,34.34428 3.43827,9.6807 7.93242,11.49545 25.02664,12.30232 20.38007,0.96198 18.70172,-7.05264 18.74771,89.52576 0.0372,78.14988 0.76046,93.31318 4.63559,97.18838 5.10375,5.1037 39.47952,5.7677 46.89968,0.9059 l 0,0 c 2.35355,-1.5422 4.59682,-4.9908 5.19636,-7.9885 0.58024,-2.9012 1.05499,-42.6453 1.05499,-88.32018 0,-98.50366 -1.97996,-89.84472 20.91416,-91.46367 8.6483,-0.61157 16.08774,-1.9988 17.64354,-3.28999 5.69917,-4.72989 7.79473,-22.93221 4.07099,-35.36099 -3.39601,-11.33484 -21.92042,-12.02929 -79.67357,-11.27958 l -30.40417,0.39469 M 466.72739,1058.212 c 11.69794,-3.2485 11.96262,-4.5134 11.96262,-57.1678 0,-49.79108 0.7462,-54.70028 6.94866,-45.71598 1.77347,2.569 10.49663,21.7707 19.38479,42.67068 18.75242,44.0953 24.94705,56.4286 29.70608,59.1441 4.75104,2.7111 37.00449,2.604 41.83219,-0.1388 2.03384,-1.1553 4.26427,-4.1239 4.95652,-6.5966 1.66803,-5.9581 1.63084,-216.29186 -0.0393,-222.27835 -0.87243,-3.12717 -3.15697,-5.42911 -6.96866,-7.02174 -6.64919,-2.77821 -26.21813,-3.13493 -33.46124,-0.60998 -8.92988,3.11297 -9.53733,7.03483 -9.06808,58.5449 0.61717,67.74619 0.79744,67.78079 -30.13925,-5.77084 -9.74357,-23.16526 -19.15663,-44.1424 -20.91789,-46.61588 -3.99466,-5.60997 -11.94049,-7.89646 -27.48252,-7.90836 -16.27602,-0.0132 -22.74935,2.83645 -25.01925,11.01097 -2.18768,7.87835 -2.38319,208.23798 -0.21234,217.59458 0.81637,3.5188 2.21672,7.1301 3.11185,8.0253 4.12938,4.1294 24.78699,5.7827 35.40582,2.8338 z m -154.84096,-51.769 c -9.33167,-9.8944 -14.02049,-32.06618 -14.0766,-66.56358 -0.0555,-34.1501 5.14579,-59.01872 14.35419,-68.63022 5.69506,-5.94435 14.83222,-6.35046 19.81425,-0.88064 9.34216,10.25684 12.1419,22.63116 13.23131,58.47976 1.28583,42.3124 -2.79038,67.58978 -12.59139,78.08188 -6.68225,7.1532 -13.68097,6.9888 -20.73176,-0.4872 z m 31.94515,52.0518 c 14.02341,-4.3645 23.20705,-10.1699 32.94756,-20.8276 10.50804,-11.4975 17.23243,-25.0755 22.91825,-46.27698 4.19356,-15.637 4.43228,-18.5566 4.45832,-54.5217 0.0246,-34.0688 -0.34785,-39.3673 -3.60071,-51.2174 -11.18477,-40.7454 -33.91709,-64.43281 -65.60401,-68.36033 -35.26905,-4.3715 -64.29452,12.37038 -81.00697,46.7248 -9.44311,19.41146 -13.89003,38.94083 -15.12348,66.41733 -2.44135,54.3841 14.22179,101.50518 42.25627,119.49478 17.93405,11.5083 42.5205,14.8647 62.75477,8.5671 z m -213.49392,-47.8216 c -2.45231,-2.7097 -2.73434,-10.1242 -2.73434,-71.86948 0,-66.64531 0.10574,-68.95393 3.30434,-72.15255 1.81739,-1.81739 4.2337,-3.28802 5.36957,-3.26806 4.95172,0.0871 16.02062,6.67748 20.01888,11.91937 19.44458,25.49324 17.79191,104.56484 -2.67272,127.87262 -8.86887,10.1014 -18.20827,13.1085 -23.28573,7.4981 z m 23.58378,45.9083 c 22.92175,-5.4749 38.57261,-15.6121 52.18371,-33.8 15.53467,-20.7583 25.22456,-59.87758 23.32704,-94.17388 -2.63094,-47.55241 -15.8642,-77.0505 -42.56478,-94.88042 -19.3623,-12.9297 -50.28998,-18.51727 -84.12698,-15.19886 -21.410501,2.09973 -27.832501,4.91597 -30.804761,13.50879 -2.54087,7.34589 -2.99158,205.85277 -0.48772,214.86627 0.9087,3.2713 3.06842,7.2295 4.7994,8.7961 7.06271,6.3918 52.447891,6.9071 77.674091,0.882 z"
         id="path3057"
         style="fill:#333333" />
      <path
         d="m 631.19681,1344.8572 c 11.31893,-3.1431 11.02019,0.078 11.02019,-118.8332 0,-117.0029 0.1515,-115.2003 -9.98185,-118.7328 -7.64697,-2.6657 -31.89574,-2.3709 -38.69621,0.4705 -4.32746,1.8081 -6.01846,3.7977 -7.37249,8.6739 -2.18768,7.8784 -2.3832,208.238 -0.21234,217.5948 0.81637,3.5186 2.21672,7.1299 3.11185,8.0251 4.23452,4.2345 30.64582,5.9909 42.13085,2.8017 z m -191.73811,-0.7489 c 6.40427,-2.5481 6.95953,-6.7068 7.49411,-56.1278 0.28503,-26.3521 1.08326,-48.4881 1.7738,-49.1911 2.71228,-2.7611 7.69969,6.7574 26.6966,50.9507 10.8603,25.2647 21.36461,47.6587 23.34291,49.7646 4.64891,4.9484 12.76855,7.1303 26.14662,7.0255 13.4739,-0.1057 21.61866,-2.8397 24.30212,-8.1584 2.64237,-5.2372 3.10678,-216.9617 0.49098,-223.8418 -2.22921,-5.8632 -10.77861,-9.1146 -23.96701,-9.1146 -13.18841,0 -21.7378,3.2514 -23.96702,9.1146 -0.95246,2.5052 -1.64166,24.7345 -1.64166,52.9495 0,65.2629 0.42378,65.3284 -28.81282,-4.4556 -9.75813,-23.2915 -19.17913,-44.7113 -20.93555,-47.5994 -1.75643,-2.8884 -5.75553,-6.3219 -8.88687,-7.6303 -6.58527,-2.7513 -26.93017,-3.1452 -35.76164,-0.6922 -10.77762,2.9937 -10.51608,0.016 -10.51608,119.8213 0,99.6862 0.20989,107.7846 2.89989,111.8898 1.59494,2.4338 5.31233,5.17 8.26086,6.08 5.64113,1.7414 28.06891,1.2092 33.08076,-0.7848 z m -152.0912,-97.5258 c -4.34197,-3.0411 -4.51459,-6.3531 -1.17362,-22.5156 2.88357,-13.9498 5.51029,-21.1733 7.69944,-21.1733 2.67303,0 6.08413,10.5612 8.25049,25.5446 2.07559,14.3554 2.05956,14.5165 -1.75111,17.6021 -4.67756,3.7876 -8.18336,3.9336 -13.0252,0.5422 z m -27.9915,96.3095 c 4.5728,-2.9962 7.52093,-10.7676 11.9156,-31.4098 3.31135,-15.5539 6.38564,-18.3218 20.44355,-18.4065 11.97255,-0.073 17.87106,1.5776 20.02412,5.6007 0.94838,1.7721 3.18493,10.3204 4.97008,18.9965 3.92142,19.0584 6.85444,25.1944 12.84403,26.8706 2.48237,0.6947 11.61034,1.2631 20.28436,1.2631 19.80465,0 24.70729,-2.4461 24.70729,-12.3271 0,-8.6369 -42.33513,-212.1569 -45.34073,-217.9691 -4.57997,-8.8568 -6.05864,-9.2689 -33.2583,-9.2689 -24.19616,0 -25.38958,0.1586 -29.35233,3.8807 -2.27189,2.1342 -4.89735,5.8516 -5.83438,8.2608 -0.93702,2.4092 -12.4525,51.2194 -25.58995,108.4671 -23.31304,101.589 -25.309,112.9179 -20.42574,115.936 7.33751,4.5348 37.74284,4.607 44.6124,0.1057 z M 132.02608,1210.8241 c -1.37961,-1.3796 -1.98261,-10.1616 -1.98261,-28.8749 0,-26.3596 0.0765,-26.9425 3.85996,-29.4216 5.45199,-3.5721 13.51444,-1.5406 20.12662,5.0716 12.98178,12.9817 10.29412,42.4591 -4.7172,51.7366 -6.22404,3.8467 -14.23838,4.5367 -17.28677,1.4883 z m -14.77131,134.0652 c 11.13799,-3.0931 11.93286,-5.9751 12.02674,-43.6045 0.0935,-37.5141 0.68375,-39.8894 10.28203,-41.3854 36.84685,-5.7431 59.90669,-19.5692 71.04433,-42.5963 7.20368,-14.8936 9.19758,-25.4904 8.30073,-44.1154 -0.6517,-13.5336 -1.58436,-17.8281 -5.8529,-26.9497 -12.41781,-26.5364 -34.29309,-38.8527 -73.92528,-41.622 -16.39426,-1.1455 -48.158139,1.2113 -56.637099,4.2024 -10.58435,3.7338 -10.27842,0.2016 -10.25154,118.3628 0.0188,82.8367 0.49587,107.9948 2.10829,111.1906 1.14752,2.2744 4.66304,5.0166 7.82347,6.1025 7.18379,2.4681 26.850419,2.7008 35.081229,0.415 z m 672.17096,0.1206 c 9.49382,-2.715 12.24954,-7.0032 12.08095,-18.7994 -0.17739,-12.413 -3.07005,-21.7066 -7.78385,-25.0083 -2.46956,-1.7297 -7.82112,-2.4943 -17.63443,-2.5196 -35.58291,-0.091 -51.17724,-21.9993 -51.23835,-71.982 -0.0454,-37.1494 9.43807,-60.4163 28.73218,-70.4918 5.52736,-2.8863 9.73907,-3.5487 23.01967,-3.6199 15.00379,-0.081 16.49592,-0.3854 19.39145,-3.961 4.24002,-5.2361 7.12402,-15.7616 7.22611,-26.3729 0.0719,-7.4693 -0.52753,-9.2323 -4.04606,-11.901 -6.60689,-5.0109 -18.69777,-7.0908 -36.12951,-6.215 -46.88569,2.3558 -82.4185,33.4092 -94.45304,82.546 -1.95063,7.9643 -3.75663,22.4016 -4.30091,34.3817 -3.19769,70.3864 27.82358,117.6362 82.84002,126.1769 7.53297,1.1694 35.57434,-0.3114 42.29577,-2.2337 z"
         id="path3045"
         style="fill:#333333" />
      <path
         d="m 873.28847,1331.3053 c 2.91291,-2.0403 2.82372,-5.0033 -0.21043,-6.9913 -4.84033,-3.1715 -10.05267,3.1169 -5.58331,6.7359 2.72114,2.2035 2.99523,2.2156 5.79374,0.2554 z"
         id="path3043"
         style="fill:#333333" />
      <path
         d="m 617.06457,716.08698 c 14.00789,-2.02688 32.03163,-10.33245 40.1693,-18.51052 5.97672,-6.0064 7.92478,-11.1381 8.10673,-21.3552 0.1785,-10.02319 -1.62833,-14.59035 -8.69518,-21.97899 -8.81545,-9.21687 -19.00317,-11.64295 -38.99221,-9.28551 -9.02087,1.06389 -9.89857,0.99762 -15.96894,-1.20581 -11.99107,-4.35252 -19.25582,-9.7279 -25.23834,-18.67449 -2.7463,-4.10698 -8.20327,-19.36877 -11.96646,-33.46723 -3.32763,-12.4667 -5.31277,-16.37827 -10.61563,-20.91732 -6.69084,-5.72711 -13.6486,-7.84653 -24.45557,-7.44948 -8.17608,0.30039 -9.60692,0.65451 -14.20716,3.51609 -4.69828,2.92258 -5.79167,3.17878 -13.40827,3.14182 -12.1685,-0.0591 -22.49914,4.57422 -30.8782,13.84884 -3.61484,4.00119 -6.62769,9.94756 -5.57401,11.00124 0.33541,0.33541 3.3224,0.0342 6.63775,-0.66937 12.43027,-2.63788 25.98819,1.68035 34.20644,10.89484 6.49497,7.28231 13.66495,22.12062 20.58493,42.60057 8.82259,26.11086 15.1543,37.42458 27.51504,49.16488 16.34486,15.52445 39.62012,22.69674 62.77978,19.34564 z"
         id="path3041"
         style="fill:#333333" />
      <path
         d="m 896.4657,682.65524 c 5.75658,-2.40525 8.37788,-10.50169 4.9736,-15.36199 -1.86583,-2.66383 -6.50924,-5.21679 -9.48851,-5.21679 -5.58116,0 -11.95079,5.6226 -11.95079,10.54921 0,3.2995 3.21752,8.307 6.32098,9.8375 3.96284,1.9543 5.84196,1.98988 10.14472,0.19207 z"
         id="path3039"
         style="fill:#333333" />
      <path
         d="m -47.0108,656.58945 c 1.8987,-2.28781 0.4109,-6.37446 -2.5954,-7.129 -1.8763,-0.47092 -3.143,-0.0793 -4.6646,1.44238 -1.7832,1.78323 -1.9194,2.46081 -0.9305,4.63124 1.3361,2.93239 6.121,3.54895 8.1905,1.05538 z"
         id="path3037"
         style="fill:#333333" />
      <path
         d="m 168.09971,626.72834 c 2.64144,-2.64144 3.4,-4.22549 3.4,-7.1 0,-2.87451 -0.75856,-4.45856 -3.4,-7.1 -2.87777,-2.87777 -4.10413,-3.4 -7.98422,-3.4 -3.65215,0 -5.24823,0.59329 -7.85,2.91797 -2.80382,2.50521 -3.26578,3.57773 -3.26578,7.58203 0,4.0043 0.46196,5.07682 3.26578,7.58203 2.60177,2.32468 4.19785,2.91797 7.85,2.91797 3.88009,0 5.10645,-0.52223 7.98422,-3.4 z"
         id="path3035"
         style="fill:#333333" />
      <path
         d="m 334.71875,116.8125 c -26.70509,-0.0584 -35.19032,0.69798 -56.3125,4.90625 -83.0526,16.54694 -150.81688,69.08372 -184.4375,143 -16.30692,35.85142 -23.25,66.50562 -23.25,102.71875 0,28.19979 4.51664,50.76126 16.9375,84.78125 2.37376,6.50157 2.54535,9 0.6875,9 -0.74757,0 -3.36857,1.79001 -5.84375,3.96875 -5.21685,4.59205 -22.57601,15.38183 -33.75,21 -17.53084,8.81434 -57.94273,33.38007 -66.875,40.65625 -6.48923,5.28608 -13.073,8.89506 -14.15625,7.71875 -0.4209,-0.45706 0.05608,-5.34375 1.0625,-10.84375 1.00644,-5.5 3.22561,-18.55 4.9375,-29 1.71189,-10.45 3.51716,-20.86577 4.03125,-23.15625 3.18757,-14.20198 5.953,-46.19192 5.96875,-69.4375 0.0171,-25.24336 4.52356,-32.79601 22.125,-37 7.87326,-1.88047 13.37394,-4.6803 15.34375,-7.84375 0.88781,-1.4258 2.18327,-4.46087 10.03125,-23.0625 1.50829,-3.575 3.35255,-7.36944 4.09375,-8.4375 3.68497,-5.30999 15.29776,-15.87179 20.75,-18.875 9.90584,-5.45634 20.36726,-12.50737 21,-14.15625 1.69566,-4.41882 -2.75213,-6.53125 -13.75,-6.53125 -12.62773,0 -19.42292,2.7976 -34,14 -2.14428,1.64786 -4.74576,3 -5.78125,3 -3.98385,0 -3.56931,-2.17136 5.125,-27.4375 2.26112,-6.57096 4.9863,-16.02096 6.0625,-21 1.07621,-4.97905 2.8,-12.2125 3.84375,-16.0625 4.08001,-15.04962 5.01359,-45.96037 1.625,-54.1875 -2.59678,-6.3047 -12.82291,-8.47951 -18.15625,-3.875 l -2.8125,2.40625 0.34375,19.09375 c 0.45932,26.27092 -1.03207,36.32146 -9.09375,61.9375 -3.70729,11.77993 -9.53676,15.15537 -13.5,7.8125 -1.55412,-2.87939 -1.68961,-6.99201 -1.4375,-43.4375 0.26485,-38.28755 0.19974,-40.45233 -1.6875,-44.71875 -5.09355,-11.51481 -16.87584,-10.55749 -20.15625,1.625 -0.89761,3.33348 -0.71532,6.43841 0.96875,16.40625 3.96446,23.46521 5.56756,62.89934 2.78125,68.40625 -1.87317,3.70218 -6.12119,4.89511 -8.84375,2.46875 -3.27519,-2.91885 -4.58549,-6.90498 -6.9375,-21.03125 -1.18078,-7.09185 -2.40386,-13.33022 -2.71875,-13.84375 -0.31489,-0.51353 -0.83865,-10.95286 -1.15625,-23.1875 -0.53293,-20.52931 -0.71922,-22.4586 -2.65625,-25.0625 -3.73077,-5.01519 -11.94995,-3.87446 -15.21875,2.09375 -1.4579,2.66205 -1.6875,6.25737 -1.6875,25.09375 0,23.77221 0.2737,25.63532 6.125,43.6875 2.75826,8.50954 3.2732,11.37793 2.59375,14 -0.46994,1.81356 -1.5654,3.45703 -2.4375,3.625 -2.0688,0.39841 -7.0248,-4.95302 -10.4375,-11.28125 -4.2826,-7.94124 -15.52085,-24.21413 -23.53125,-34.03125 -8.8166,-10.80497 -14.158,-14.16785 -19.1875,-12.125 -2.72,1.10476 -3.1688,1.80379 -3.4375,5.46875 -0.386,5.26596 1.08775,7.81875 13.78125,23.6875 12.2483,15.31235 15.4141,19.94026 19.3125,28.25 3.6325,7.74304 3.6522,7.96407 2.125,40.71875 -1.2791,27.43106 -0.09215,35.03072 6.15625,39.125 1.3896,0.91046 6.65725,2.70926 11.71875,4 8.65302,2.2066 9.50232,2.68183 14.125,7.625 2.70402,2.89147 5.83712,7.275 6.9375,9.75 2.62992,5.91529 3.2716,20.41597 1.71875,38.09375 -1.14603,13.04643 -7.91223,50.39137 -10.59375,58.40625 -1.86933,5.58732 -11.75525,45.34794 -15.15625,61 -3.3632,15.47793 -3.72555,26.70489 -1.03125,30.8125 1.5162,2.31141 2.45515,2.6875 6.53125,2.6875 2.62182,0 7.40538,-0.69265 10.625,-1.53125 6.21732,-1.61941 42.65525,-19.43015 56.0625,-27.40625 24.58158,-14.62381 52.72309,-29.21145 68.46875,-35.5 13.29787,-5.31094 20.07371,-9.99723 22.78125,-15.75 l 1.96875,-4.1875 4.375,5.8125 c 22.58463,29.84439 35.53068,43.88661 54.125,58.71875 41.31379,32.9548 89.06235,51.89317 145.84375,57.84375 11.93256,1.25051 46.39374,0.4126 59.4375,-1.4375 21.56447,-3.05867 43.19436,-8.38186 46.1875,-11.375 1.47063,-1.47063 1.25034,-1.92185 -2.5,-5.25 -2.24832,-1.9952 -7.58367,-5.13414 -11.875,-7 -7.37607,-3.20709 -8.44624,-3.38906 -19.40625,-3.40625 -8.12494,-0.0127 -12.06773,-0.41604 -13.1875,-1.34375 -1.3024,-1.07902 -4.37102,-1.12254 -16.625,-0.21875 -10.88191,0.80259 -19.80569,0.81218 -32.25,0.0312 -9.4555,-0.5934 -17.44653,-1.26188 -17.78125,-1.46875 -0.33471,-0.20687 -4.97243,-0.8733 -10.3125,-1.46875 -10.24168,-1.14202 -32.00345,-7.33053 -48.25,-13.75 -19.52306,-7.71412 -46.09894,-22.78298 -65.3125,-37 -9.69588,-7.17444 -26.50757,-23.99924 -31.53125,-31.59375 -6.21931,-9.40198 -11.49999,-20.66302 -13.65625,-29.125 -5.83354,-22.89306 0.78732,-55.62143 14.15625,-70.125 8.83035,-9.57982 20.49985,-14.46875 34.625,-14.46875 8.52108,0 19.21875,2.15254 19.21875,3.875 0,0.44345 -0.96647,1.67101 -2.125,2.71875 -3.82456,3.45884 -5.875,8.91389 -5.875,15.53125 0,8.05738 3.13601,13.68747 9.78125,17.59375 4.3325,2.54679 5.52567,2.76961 14.46875,2.6875 7.64185,-0.0702 9.75,0.2053 9.75,1.28125 0,2.07435 4.52567,10.57504 6.65625,12.5 6.26837,5.66344 18.23252,7.39091 26.1875,3.78125 2.39757,-1.08792 4.70654,-1.96875 5.125,-1.96875 0.41846,0 1.36394,2.14338 2.09375,4.75 0.95467,3.40974 2.87983,6.32162 6.875,10.40625 6.72588,6.8765 13.59895,9.38851 23.5,8.59375 7.32486,-0.58797 12.59096,-3.13364 18.3125,-8.84375 l 4.28125,-4.25 5.4375,5.59375 c 8.56298,8.77052 19.64333,12.11058 30.71875,9.28125 11.57814,-2.95776 17.68887,-8.40304 22.25,-19.84375 l 1.5,-3.8125 4.28125,2.84375 c 8.93651,5.97559 17.02489,7.52846 25.9375,4.9375 11.93261,-3.46891 18.76698,-11.72675 19.625,-23.71875 0.27252,-3.80884 0.62457,-6.9375 0.78125,-6.9375 0.15668,0 3.03257,0.6982 6.40625,1.5625 15.60305,3.99732 31.47502,-6.49365 32.28125,-21.34375 0.11115,-2.04729 -0.16016,-5.85625 -0.59375,-8.46875 -0.75628,-4.55685 -0.68926,-4.75 1.59375,-4.75 5.62216,0 12.97979,-3.16728 17.25,-7.4375 8.51476,-8.51476 8.1662,-20.60718 -0.8125,-29.53125 -4.00749,-3.98311 -4.08731,-4.23003 -2.28125,-5.5625 2.68274,-1.97926 13.16393,-5.26532 19.21875,-6.03125 6.95939,-0.88036 17.90351,1.08985 25.3125,4.59375 16.14151,7.63373 29.60589,28.29213 34.625,53.0625 2.13395,10.53146 1.49989,27.88472 -1.46875,39.25 -4.67951,17.91521 -14.69027,37.00263 -28.375,54.15625 -12.63869,15.84241 -40.003,41.6147 -60.4375,56.9375 -5.96746,4.47469 -6.80533,5.8833 -4.59375,7.71875 2.68756,2.23047 6.3125,8.69064 6.3125,11.25 0,3.38389 0.97141,5.59375 2.46875,5.59375 0.69559,0 4.59819,-2.18696 8.65625,-4.84375 25.09601,-16.4302 48.73765,-40.481 67.4375,-67.53125 2.20044,4.68736 7.00598,10.24185 9.90625,15.09375 3.57635,5.98293 10.33488,12.16234 26.53125,24.28125 5.2321,3.91492 26.74013,23.09099 36.875,32.875 3.63641,3.51052 8.59841,8.01052 11.03125,10 2.43284,1.98947 7.83284,6.95391 12,11.03125 9.46394,9.25997 16.82559,12.99599 25.78125,13.0625 4.26857,0.0317 6.62789,-0.44039 7.6875,-1.5 3.63882,-3.63881 3.92949,-7.89644 4.65625,-71.46875 0.39298,-34.375 1.00309,-63.4 1.34375,-64.5 0.34067,-1.1 1.25352,-8.2941 2.03125,-16 2.16679,-21.46879 5.16228,-28.07602 15.5625,-34.25 4.10339,-2.43593 5.54053,-2.71421 15.25,-2.84375 7.88438,-0.10518 11.35625,-0.55982 13.125,-1.71875 5.72525,-3.75133 14.64708,-25.9154 20.1875,-50.1875 3.33426,-14.6071 4.16118,-16.30749 11.875,-24.34375 6.7757,-7.05893 14.92845,-13.45187 30.59375,-23.9375 17.21108,-11.52029 21.26442,-16.72118 17.21875,-22.15625 -2.65416,-3.56568 -5.89746,-4.49657 -10.875,-3.15625 -5.38483,1.44998 -26.83271,15.88877 -38.34375,25.8125 -17.68365,15.24516 -20.4713,17.35337 -22.5,17.0625 -1.50295,-0.21548 -2.08906,-1.15682 -2.3125,-3.8125 -0.30359,-3.60825 -0.0396,-4.1105 7.9375,-15.46875 10.15853,-14.46443 16.13977,-27.55298 22.34375,-48.90625 4.99012,-17.17531 4.18421,-21.90365 -4.15625,-24.65625 -7.52727,-2.48422 -12.1545,2.70246 -16.375,18.34375 -3.81493,14.13825 -6.14629,20.4035 -12.53125,33.71875 -8.77043,18.28994 -13.24477,25.60509 -16.9375,27.59375 -3.09273,1.66555 -3.4277,1.66607 -5.875,0.0625 -2.16623,-1.41933 -2.59375,-2.46256 -2.59375,-6.28125 0,-2.51517 0.72984,-7.1091 1.625,-10.21875 3.90818,-13.57642 13.70187,-38.76082 20.15625,-51.8125 8.14772,-16.47584 9.2139,-20.66728 6.5625,-26.09375 -2.41949,-4.95186 -5.77144,-6.52553 -10.84375,-5.125 -4.93216,1.36184 -8.72629,5.18947 -10.78125,10.875 -2.24282,6.20527 -10.42191,33.37934 -13.6875,45.5 -3.41429,12.67255 -10.65928,32.43978 -12.75,34.75 -0.87857,0.97081 -2.80003,1.75 -4.28125,1.75 -2.17543,0 -3.04062,-0.76369 -4.5,-4 -1.60493,-3.55911 -1.7499,-5.82873 -1.15625,-20.3125 0.95478,-23.29452 3.88554,-37.9377 11.15625,-55.96875 4.96653,-12.31679 5.31099,-15.58278 2.09375,-19.40625 -4.42692,-5.2611 -14.46575,-5.25931 -17.875,0 -2.9085,4.48686 -6.93603,16.18374 -9.8125,28.5 -3.52336,15.08607 -4.87064,30.55852 -5.75,65.1875 -0.64327,25.3317 -0.67621,25.49983 -2.875,25.8125 -1.65075,0.23475 -2.92177,-0.74339 -5,-3.8125 -9.65995,-14.26567 -17.269,-20.95814 -27.34375,-24.09375 -10.49572,-3.26663 -15.94008,-2.02046 -14.59375,3.34375 0.3145,1.25306 5.08804,7.08469 10.59375,12.96875 16.76423,17.91624 20.03796,26.79574 20.0625,54.09375 0.0128,14.21068 2.4856,17.82161 16.5,24.15625 8.71687,3.9401 10.41474,5.50682 14.0625,13.03125 3.03485,6.26015 3.04035,9.2603 0.0312,22.4375 -7.4819,32.76356 -9.65361,51.38077 -11.15625,96.5625 -0.4125,12.40314 -0.22765,21.95123 0.53125,27.5 1.62817,11.90449 1.66374,13.24175 0.375,13.6875 -1.38393,0.47868 -8.01982,-6.43431 -16.4375,-17.125 -7.59243,-9.64259 -23.92046,-26.11201 -37.28125,-37.59375 -17.32879,-14.8917 -29.0045,-26.29365 -33.5,-32.71875 -1.5057,-2.15199 -5.34117,-7.03703 -8.21875,-10.53125 6.74193,-12.42916 12.32751,-25.1598 16.46875,-37.8125 8.12531,-24.82524 10.91184,-42.80262 11.03125,-71.40625 0.10457,-25.05145 -1.24804,-36.41206 -6.96875,-58.34375 -22.74248,-87.18882 -96.40631,-156.71428 -189.34375,-178.75 -22.34038,-5.29697 -35.67389,-6.75248 -63.09375,-6.8125 z"
         transform="translate(94.285704,22.857146)"
         id="path3033"
         style="fill:#333333" />
      <path
         d="m 665.34069,161.38943 c 2.75479,-2.75479 0.70355,-7.8 -3.17126,-7.8 -2.13655,0 -5.62874,2.6841 -5.62874,4.32625 0,3.53258 6.26722,6.00653 8.8,3.47375 z"
         id="path3029"
         style="fill:#333333" />
      <path
         d="m -44.3571,331.44162 c 6.7964,-3.22508 8.0396,-10.9558 2.6642,-16.56653 -3.3897,-3.53806 -7.9101,-4.40917 -12.6353,-2.43488 -7.7615,3.24298 -8.7677,13.6523 -1.7739,18.35262 4.0232,2.7039 7.0606,2.87168 11.745,0.64879 z"
         id="path3027"
         style="fill:#333333" />
      <path
         d="m 184.7088,1464.4141 c 1.87415,-1.8741 1.41467,-5.6147 -0.83777,-6.8202 -4.22953,-2.2636 -9.12849,1.9725 -6.96223,6.0202 1.20691,2.2552 5.86691,2.7331 7.8,0.8 z"
         id="path3025"
         style="fill:#333333" />
      <path
         d="m 826.154,111.49768 c 6.09138,-3.14998 7.98383,-10.728 3.95739,-15.846777 -6.49264,-8.25406 -20.53285,-3.36618 -20.23772,7.045437 0.21708,7.65815 9.15111,12.488 16.28033,8.80134 z"
         id="path3023"
         style="fill:#333333" />
      <path
         d="m 140.75182,101.60084 c 0.9933,-2.180184 0.8509,-2.849884 -0.9999,-4.700644 -1.7879,-1.7879 -2.6338,-1.99167 -4.9298,-1.18748 -5.2665,1.84459 -3.8038,8.430514 1.8723,8.430514 2.1347,0 3.2044,-0.67025 4.0574,-2.54239 z"
         id="path2998"
         style="fill:#333333" />
      <path
         d="m 134.95484,425.63526 c 0,-1.36492 1.11675,-2.48167 2.48167,-2.48167 1.36492,0 2.48167,1.11675 2.48167,2.48167 0,1.36492 -1.11675,2.48167 -2.48167,2.48167 -1.36492,0 -2.48167,-1.11675 -2.48167,-2.48167 z"
         id="path4323"
         style="fill:#333333" />
      <path
         d="m 46.263918,1395.8115 c -7.106981,-7.107 -0.771116,-18.0836 9.554066,-16.5521 7.534839,1.1177 11.725537,8.1971 8.19247,13.8397 -3.338494,5.3319 -13.564179,6.8948 -17.746536,2.7124 z"
         id="path4336"
         style="fill:#333333" />
      <path
         d="m 754.14743,1419.776 c 2.64144,-2.6415 3.4,-4.2255 3.4,-7.1 0,-2.8745 -0.75856,-4.4586 -3.4,-7.1 -2.87777,-2.8778 -4.10413,-3.4 -7.98422,-3.4 -3.65215,0 -5.24823,0.5933 -7.85,2.918 -2.80382,2.5052 -3.26578,3.5777 -3.26578,7.582 0,4.0043 0.46196,5.0768 3.26578,7.582 2.60177,2.3247 4.19785,2.918 7.85,2.918 3.88009,0 5.10645,-0.5222 7.98422,-3.4 z"
         id="path3035-7"
         style="fill:#333333;display:inline" />
      <path
         d="m 866.11332,512.89449 c 2.75479,-2.75479 0.70355,-7.8 -3.17126,-7.8 -2.13655,0 -5.62874,2.6841 -5.62874,4.32625 0,3.53258 6.26722,6.00653 8.8,3.47375 z"
         id="path3029-6"
         style="fill:#333333;display:inline" />
      <path
         d="m 868.63613,1078.0021 c 2.75479,-2.7548 0.70355,-7.8 -3.17126,-7.8 -2.13655,0 -5.62874,2.6841 -5.62874,4.3262 0,3.5326 6.26722,6.0066 8.8,3.4738 z"
         id="path3029-2"
         style="fill:#333333;display:inline" />
      <path
         d="m -29.481304,1163.7773 c 2.75479,-2.7547 0.70355,-7.8 -3.17126,-7.8 -2.13655,0 -5.62874,2.6841 -5.62874,4.3263 0,3.5326 6.26722,6.0065 8.8,3.4737 z"
         id="path3029-7"
         style="fill:#333333;display:inline" />
      <path
         d="m 11.062018,770.08804 c 2.020919,3.59628 3.691244,6.13705 0.848678,6.13705 -1.567376,0 -7.3043698,0.54157 -7.3043698,-1.60217 0,-4.61168 4.5976413,-7.84136 6.4556918,-4.53488 z"
         id="path3029-0"
         style="fill:#333333;display:inline" />
      <path
         d="m 8.3607226,99.154997 c 2.7547904,-2.75479 0.70355,-7.8 -3.17126,-7.8 -2.13655,0 -5.62873996,2.6841 -5.62873996,4.32625 0,3.53258 6.26721996,6.006533 8.79999996,3.47375 z"
         id="path3029-3"
         style="fill:#333333;display:inline" />
      <path
         d="m 391.82659,714.71863 c 2.75479,-2.75479 0.70355,-7.8 -3.17126,-7.8 -2.13655,0 -5.62874,2.6841 -5.62874,4.32625 0,3.53258 6.26722,6.00653 8.8,3.47375 z"
         id="path3029-6-5"
         style="fill:#333333;display:inline" />
      <path
         d="m 661.76638,997.27239 c 2.75479,-2.7547 0.70355,-7.8 -3.17126,-7.8 -2.13655,0 -5.62874,2.6841 -5.62874,4.3263 0,3.5326 6.26722,6.0065 8.8,3.4737 z"
         id="path3029-6-58"
         style="fill:#333333;display:inline" />
    </g>
  </g>
</svg>
